<?xml version="1.0" encoding="UTF-8" standalone="no"?>
<!DOCTYPE svg PUBLIC "-//W3C//DTD SVG 1.1//EN" "http://www.w3.org/Graphics/SVG/1.1/DTD/svg11.dtd">
<svg width="100%" height="100%" viewBox="0 0 287 287" version="1.1" xmlns="http://www.w3.org/2000/svg" xmlns:xlink="http://www.w3.org/1999/xlink" xml:space="preserve" xmlns:serif="http://www.serif.com/" style="fill-rule:evenodd;clip-rule:evenodd;stroke-linejoin:round;stroke-miterlimit:2;">
    <g transform="matrix(1,0,0,1,-12065.264237,-1951.323365)">
        <g transform="matrix(4.166667,0,0,4.166667,10125,0)">
            <g transform="matrix(0.24,0,0,0.24,-2409.812351,28.168367)">
                <path d="M12268.052,1891.875L12268.052,2062.938C12268.052,2094.905 12242.099,2120.858 12210.132,2120.858L12039.069,2120.858C12007.102,2120.858 11981.149,2094.905 11981.149,2062.938L11981.149,1891.875C11981.149,1859.908 12007.102,1833.955 12039.069,1833.955L12210.132,1833.955C12242.099,1833.955 12268.052,1859.908 12268.052,1891.875Z" style="fill:white;"/>
            </g>
        </g>
        <g transform="matrix(4.166667,0,0,4.166667,10125,0)">
            <g transform="matrix(0.134504,0,0,0.134504,506.100446,503.436727)">
                <path d="M0,82.81L0,28.496L58.454,28.374L58.454,0L-30.942,0L-30.942,82.81L0,82.81Z" style="fill:rgb(29,29,27);fill-rule:nonzero;"/>
            </g>
        </g>
        <g transform="matrix(4.166667,0,0,4.166667,10125,0)">
            <g transform="matrix(12.024158,0,0,-12.024158,490.051477,497.867639)">
                <path d="M0.654,0.463L0.654,-0.144L-0,-0.146L-0,-0.463L1,-0.463L1,0.463L0.654,0.463Z" style="fill:url(#_Linear1);fill-rule:nonzero;"/>
            </g>
        </g>
        <g transform="matrix(4.166667,0,0,4.166667,10125,0)">
            <g transform="matrix(61.922682,-23.17932,-23.17932,-61.922682,469.545499,511.875415)">
                <path d="M0.342,0.25C0.218,0.17 0.15,-0 0.212,-0.144C0.261,-0.258 0.393,-0.355 0.508,-0.335C0.546,-0.328 0.61,-0.304 0.649,-0.246C0.594,-0.291 0.513,-0.3 0.433,-0.27C0.294,-0.218 0.238,-0.095 0.288,0.039C0.339,0.174 0.462,0.23 0.601,0.178C0.681,0.148 0.735,0.089 0.748,0.017L0.935,0.046C0.918,0.08 0.851,0.202 0.703,0.263C0.7,0.264 0.694,0.266 0.686,0.269C0.63,0.29 0.476,0.337 0.342,0.25Z" style="fill:url(#_Linear2);fill-rule:nonzero;"/>
            </g>
        </g>
        <g transform="matrix(4.166667,0,0,4.166667,10125,0)">
            <g transform="matrix(84.24181,-24.957125,-24.957125,-84.24181,446.732338,517.395131)">
                <path d="M0.343,0.072C0.292,-0.099 0.385,-0.269 0.568,-0.323C0.678,-0.356 0.791,-0.332 0.867,-0.265L0.767,-0.164C0.741,-0.21 0.694,-0.231 0.666,-0.238C0.581,-0.259 0.477,-0.193 0.433,-0.11C0.379,-0.006 0.421,0.125 0.51,0.192C0.62,0.274 0.759,0.228 0.781,0.221C0.895,0.183 0.952,0.095 0.966,0.07C0.938,0.168 0.857,0.249 0.747,0.282C0.565,0.336 0.394,0.243 0.343,0.072Z" style="fill:url(#_Linear3);fill-rule:nonzero;"/>
            </g>
        </g>
    </g>
    <defs>
        <linearGradient id="_Linear1" x1="0" y1="0" x2="1" y2="0" gradientUnits="userSpaceOnUse" gradientTransform="matrix(1,0,0,-1,0,0.000008)"><stop offset="0" style="stop-color:rgb(249,242,165);stop-opacity:1"/><stop offset="0.15" style="stop-color:rgb(249,242,165);stop-opacity:1"/><stop offset="0.88" style="stop-color:rgb(238,137,1);stop-opacity:1"/><stop offset="1" style="stop-color:rgb(238,137,1);stop-opacity:1"/></linearGradient>
        <linearGradient id="_Linear2" x1="0" y1="0" x2="1" y2="0" gradientUnits="userSpaceOnUse" gradientTransform="matrix(1,0,0,-1,0,-0.018504)"><stop offset="0" style="stop-color:rgb(249,242,165);stop-opacity:1"/><stop offset="0.15" style="stop-color:rgb(249,242,165);stop-opacity:1"/><stop offset="0.88" style="stop-color:rgb(238,137,1);stop-opacity:1"/><stop offset="1" style="stop-color:rgb(238,137,1);stop-opacity:1"/></linearGradient>
        <linearGradient id="_Linear3" x1="0" y1="0" x2="1" y2="0" gradientUnits="userSpaceOnUse" gradientTransform="matrix(1,0,0,-1,0,-0.020421)"><stop offset="0" style="stop-color:rgb(238,137,1);stop-opacity:1"/><stop offset="0.12" style="stop-color:rgb(238,137,1);stop-opacity:1"/><stop offset="0.47" style="stop-color:rgb(246,193,88);stop-opacity:1"/><stop offset="0.85" style="stop-color:rgb(249,242,165);stop-opacity:1"/><stop offset="1" style="stop-color:rgb(249,242,165);stop-opacity:1"/></linearGradient>
    </defs>
</svg>
