<svg xmlns="http://www.w3.org/2000/svg" xml:space="preserve" style="fill-rule:evenodd;clip-rule:evenodd;stroke-linejoin:round;stroke-miterlimit:2" viewBox="0 0 287 287"><path d="M12268.052 1891.875v171.063c0 31.967-25.953 57.92-57.92 57.92h-171.063c-31.967 0-57.92-25.953-57.92-57.92v-171.063c0-31.967 25.953-57.92 57.92-57.92h171.063c31.967 0 57.92 25.953 57.92 57.92" style="fill:#fff" transform="translate(-11981.15 -1833.955)"/><path d="M0 82.81V28.496l58.454-.122V0h-89.396v82.81z" style="fill:#1d1d1b;fill-rule:nonzero" transform="translate(168.488 146.33)scale(.56043)"/><path d="M.654.463v-.607L0-.146v-.317h1v.926z" style="fill:url(#a);fill-rule:nonzero" transform="matrix(50.10066 0 0 -50.10066 101.617 123.125)"/><path d="M.342.25C.218.17.15 0 .212-.144c.049-.114.181-.211.296-.191a.22.22 0 0 1 .141.089C.594-.291.513-.3.433-.27.294-.218.238-.095.288.039.339.174.462.23.601.178.681.148.735.089.748.017l.187.029a.46.46 0 0 1-.249.223C.63.29.476.337.342.25" style="fill:url(#b);fill-rule:nonzero" transform="rotate(159.478 -8.34 92.21)scale(-275.49514 275.49514)"/><path d="M.343.072C.292-.099.385-.269.568-.323a.32.32 0 0 1 .299.058l-.1.101a.16.16 0 0 0-.101-.074C.581-.259.477-.193.433-.11.379-.006.421.125.51.192c.11.082.249.036.271.029A.34.34 0 0 0 .966.07a.32.32 0 0 1-.219.212.314.314 0 0 1-.404-.21" style="fill:url(#c);fill-rule:nonzero" transform="rotate(163.498 -54.267 96.526)scale(-366.08718 366.08718)"/><defs><linearGradient id="a" x1="0" x2="1" y1="0" y2="0" gradientTransform="scale(1 -1)" gradientUnits="userSpaceOnUse"><stop offset="0" style="stop-color:#f9f2a5;stop-opacity:1"/><stop offset=".15" style="stop-color:#f9f2a5;stop-opacity:1"/><stop offset=".88" style="stop-color:#ee8901;stop-opacity:1"/><stop offset="1" style="stop-color:#ee8901;stop-opacity:1"/></linearGradient><linearGradient id="b" x1="0" x2="1" y1="0" y2="0" gradientTransform="matrix(1 0 0 -1 0 -.019)" gradientUnits="userSpaceOnUse"><stop offset="0" style="stop-color:#f9f2a5;stop-opacity:1"/><stop offset=".15" style="stop-color:#f9f2a5;stop-opacity:1"/><stop offset=".88" style="stop-color:#ee8901;stop-opacity:1"/><stop offset="1" style="stop-color:#ee8901;stop-opacity:1"/></linearGradient><linearGradient id="c" x1="0" x2="1" y1="0" y2="0" gradientTransform="matrix(1 0 0 -1 0 -.02)" gradientUnits="userSpaceOnUse"><stop offset="0" style="stop-color:#ee8901;stop-opacity:1"/><stop offset=".12" style="stop-color:#ee8901;stop-opacity:1"/><stop offset=".47" style="stop-color:#f6c158;stop-opacity:1"/><stop offset=".85" style="stop-color:#f9f2a5;stop-opacity:1"/><stop offset="1" style="stop-color:#f9f2a5;stop-opacity:1"/></linearGradient></defs></svg>